<?xml version="1.0" encoding="UTF-8" standalone="no"?>
<svg
   xmlns:dc="http://purl.org/dc/elements/1.1/"
   xmlns:cc="http://creativecommons.org/ns#"
   xmlns:rdf="http://www.w3.org/1999/02/22-rdf-syntax-ns#"
   xmlns:svg="http://www.w3.org/2000/svg"
   xmlns="http://www.w3.org/2000/svg"
   viewBox="0 0 1487.9067 532.14667"
   height="532.14667"
   width="1487.9067"
   xml:space="preserve"
   id="svg2"
   version="1.1"><metadata
     id="metadata8"><rdf:RDF><cc:Work
         rdf:about=""><dc:format>image/svg+xml</dc:format><dc:type
           rdf:resource="http://purl.org/dc/dcmitype/StillImage" /></cc:Work></rdf:RDF></metadata><defs
     id="defs6" /><g
     transform="matrix(1.3333333,0,0,-1.3333333,0,532.14667)"
     id="g10"><g
       transform="scale(0.1)"
       id="g12"><path
         id="path14"
         style="fill:#EC0000;fill-opacity:1;fill-rule:nonzero;stroke:none"
         d="M 11159.3,0.0117188 H 0 V 3991.08 H 11159.3 V 0.0117188" /><path
         id="path16"
         style="fill:#ffffff;fill-opacity:1;fill-rule:nonzero;stroke:none"
         d="m 9657.4,2240.98 c 0,-46.56 -5.63,-102.98 -14.1,-132.6 -36.67,4.24 -73.35,5.65 -117.08,5.65 -38.07,0 -76.16,-2.83 -114.25,-8.46 v -603.72 h -155.15 v 705.27 c 66.3,22.57 177.72,39.49 265.17,39.49 47.96,0 101.57,-1.41 135.41,-5.63 z m -1040.99,-307.5 h 349.81 c 0,115.66 -62.06,183.37 -169.27,183.37 -110.02,0 -167.85,-63.48 -180.54,-183.37 z m 497.91,-129.77 h -495.09 c 19.75,-125.54 93.09,-186.19 231.32,-186.19 84.64,0 170.68,18.34 248.25,53.6 -5.64,-40.91 -14.09,-94.5 -23.98,-141.04 -70.52,-32.45 -145.28,-45.14 -228.5,-45.14 -259.53,0 -385.07,143.87 -385.07,385.06 0,210.17 97.33,376.61 344.16,376.61 221.46,0 317.37,-145.27 317.37,-323.01 0,-43.73 -2.82,-78.99 -8.46,-119.89 z m -933.79,-138.22 v 434.43 c -40.91,8.46 -83.22,14.11 -124.13,14.11 -153.75,0 -227.09,-95.93 -227.09,-256.73 0,-143.86 57.83,-245.43 196.06,-245.43 62.06,0 112.84,21.17 155.16,53.62 z m 153.74,823.74 v -987.38 h -142.46 l -8.46,90.28 c -39.5,-66.3 -100.16,-107.19 -201.71,-107.19 -186.18,0 -310.31,135.41 -310.31,372.36 0,248.27 132.59,389.31 393.53,389.31 40.9,0 78.99,-4.23 115.67,-11.28 v 232.74 c 47.96,16.92 102.96,21.16 153.74,21.16 z m -787.11,-513.44 v -473.94 h -155.15 v 447.14 c 0,111.43 -36.68,165.04 -191.83,165.04 -36.67,0 -80.4,-4.24 -122.72,-11.29 v -600.89 h -155.15 v 705.27 c 98.73,23.98 207.34,39.49 282.09,39.49 259.55,0 342.76,-100.14 342.76,-270.82 z m -949.32,-313.13 v 442.91 c -32.43,5.63 -67.7,8.46 -111.41,8.46 -160.81,0 -235.57,-98.75 -235.57,-256.73 0,-143.86 57.84,-245.43 196.06,-245.43 60.65,0 110.03,19.75 150.92,50.79 z m 155.17,544.46 v -705.27 h -142.46 l -8.46,84.63 c -39.5,-62.06 -100.16,-101.54 -198.89,-101.54 -186.19,0 -310.31,135.41 -310.31,372.36 0,248.27 132.58,389.31 393.54,389.31 101.55,0 184.77,-11.28 266.58,-39.49 z m -832.25,-589.6 c 45.14,0 87.46,8.47 121.31,21.15 -4.23,-42.3 -9.87,-90.27 -18.34,-131.16 -42.31,-16.93 -87.45,-22.57 -131.17,-22.57 -150.93,0 -246.85,69.11 -246.85,241.19 v 740.53 c 47.96,15.51 107.2,22.57 155.17,22.57 v -266.59 h 245.42 c -2.81,-47.96 -7.04,-91.69 -14.1,-132.59 h -231.32 v -345.59 c 0,-91.68 45.14,-126.94 119.88,-126.94 z m -430.24,358.27 v -473.94 h -155.16 v 447.14 c 0,111.43 -36.67,165.04 -191.82,165.04 -36.68,0 -80.41,-4.24 -122.72,-11.29 v -600.89 h -155.16 v 705.27 c 98.74,23.98 207.34,39.49 282.1,39.49 259.54,0 342.76,-100.14 342.76,-270.82 z m -949.31,-313.13 v 442.91 c -32.44,5.63 -67.71,8.46 -111.43,8.46 -160.8,0 -235.56,-98.75 -235.56,-256.73 0,-143.86 57.84,-245.43 196.06,-245.43 60.65,0 110.02,19.75 150.93,50.79 z m 155.16,544.46 V 1501.85 H 4553.9 l -8.46,84.63 c -39.5,-62.06 -100.15,-101.54 -198.88,-101.54 -186.19,0 -310.31,135.41 -310.31,372.36 0,248.27 132.58,389.31 393.53,389.31 101.55,0 184.77,-11.28 266.59,-39.49 z M 3287.22,1532.89 c 2.82,57.83 11.29,97.32 26.8,142.46 78.99,-36.68 180.55,-55 258.13,-55 131.18,0 204.52,42.31 204.52,125.53 0,81.81 -53.6,119.9 -186.19,177.72 l -71.93,31.03 c -132.59,57.84 -222.87,132.6 -222.87,282.11 0,160.79 111.44,263.77 339.94,263.77 91.69,0 177.73,-12.7 258.12,-40.91 -4.23,-56.42 -14.1,-100.15 -28.2,-141.05 -76.17,28.21 -166.45,40.9 -231.34,40.9 -122.71,0 -179.13,-47.96 -179.13,-122.71 0,-73.35 55.01,-115.66 153.75,-157.99 l 76.17,-32.43 c 179.14,-76.17 253.89,-156.57 253.89,-293.39 0,-162.21 -122.72,-273.64 -362.5,-273.64 -115.67,0 -210.17,16.92 -289.16,53.6 z m -708.97,695.4 c -2.24,51.49 -16.65,102.57 -43.31,148.74 l -235.13,407.27 c -17.93,31.06 -30.32,64.34 -37.2,98.47 l -9.83,-17.02 c -58.2,-100.8 -58.2,-224.99 -0.01,-325.8 l 188.12,-325.82 c 58.2,-100.81 58.2,-225.01 0,-325.82 l -9.83,-17.02 c -6.88,34.13 -19.26,67.42 -37.19,98.47 l -172.22,298.28 -109.96,190.46 c -17.92,31.05 -30.31,64.33 -37.19,98.46 l -9.83,-17.02 c -58,-100.47 -58.18,-224.16 -0.57,-324.78 l -0.02,-0.01 188.7,-326.84 c 58.2,-100.8 58.2,-225 0,-325.81 l -9.83,-17.02 c -6.88,34.13 -19.26,67.41 -37.19,98.46 l -235.14,407.28 c -31.54,54.62 -45.95,116.11 -43.31,177.03 -251.72,-65.77 -425.45,-205.41 -425.45,-367.09 0,-224.92 336.2,-407.26 750.92,-407.26 414.73,0 750.93,182.34 750.93,407.26 0,161.69 -173.73,301.37 -425.46,367.13" /></g></g></svg>